<?xml version="1.0" encoding="UTF-8"?>
<svg xmlns="http://www.w3.org/2000/svg" xmlns:xlink="http://www.w3.org/1999/xlink" width="100pt" height="100pt" viewBox="0 0 100 100" version="1.1">
<g id="surface1">
<path style=" stroke:none;fill-rule:nonzero;fill:rgb(16.862745%,27.45098%,54.509804%);fill-opacity:1;" d="M 85.738281 52.195312 C 85.738281 31.246094 68.613281 14.261719 47.492188 14.261719 C 26.371094 14.261719 9.246094 31.246094 9.246094 52.195312 C 9.246094 73.144531 26.371094 90.125 47.492188 90.125 C 68.613281 90.125 85.738281 73.144531 85.738281 52.195312 Z M 85.738281 52.195312 "/>
<path style=" stroke:none;fill-rule:nonzero;fill:rgb(96.862745%,69.019608%,46.27451%);fill-opacity:1;" d="M 24.136719 40.28125 L 72.414062 40.28125 C 73.367188 40.28125 74.136719 41.054688 74.136719 42.007812 L 74.136719 73.039062 C 74.136719 73.992188 73.367188 74.765625 72.414062 74.765625 L 24.136719 74.765625 C 23.1875 74.765625 22.414062 73.992188 22.414062 73.039062 L 22.414062 42.007812 C 22.414062 41.054688 23.1875 40.28125 24.136719 40.28125 Z M 24.136719 40.28125 "/>
<path style=" stroke:none;fill-rule:nonzero;fill:rgb(98.039216%,59.215686%,27.45098%);fill-opacity:1;" d="M 74.136719 42.007812 L 74.136719 73.039062 C 74.136719 73.992188 73.367188 74.765625 72.414062 74.765625 L 48.277344 74.765625 L 48.277344 40.28125 L 72.414062 40.28125 C 73.367188 40.28125 74.136719 41.054688 74.136719 42.007812 Z M 74.136719 42.007812 "/>
<path style=" stroke:none;fill-rule:nonzero;fill:rgb(63.529412%,75.686275%,93.72549%);fill-opacity:1;" d="M 67.242188 31.660156 L 67.242188 74.765625 L 29.308594 74.765625 L 29.308594 24.765625 C 29.3125 24.25 29.546875 23.761719 29.949219 23.4375 C 30.339844 23.097656 30.867188 22.949219 31.378906 23.039062 L 65.863281 29.9375 C 66.679688 30.105469 67.257812 30.828125 67.242188 31.660156 Z M 67.242188 31.660156 "/>
<path style=" stroke:none;fill-rule:nonzero;fill:rgb(54.901961%,70.196078%,94.901961%);fill-opacity:1;" d="M 67.242188 31.660156 L 67.242188 74.765625 L 48.277344 74.765625 L 48.277344 26.488281 L 65.863281 29.9375 C 66.679688 30.105469 67.257812 30.828125 67.242188 31.660156 Z M 67.242188 31.660156 "/>
<path style=" stroke:none;fill-rule:nonzero;fill:rgb(91.764706%,95.294118%,98.039216%);fill-opacity:1;" d="M 53.449219 59.246094 L 43.101562 59.246094 C 42.152344 59.246094 41.378906 60.019531 41.378906 60.972656 L 41.378906 74.765625 L 55.171875 74.765625 L 55.171875 60.972656 C 55.171875 60.019531 54.402344 59.246094 53.449219 59.246094 Z M 53.449219 59.246094 "/>
<path style=" stroke:none;fill-rule:nonzero;fill:rgb(91.764706%,95.294118%,98.039216%);fill-opacity:1;" d="M 38.792969 33.386719 L 45.691406 33.386719 C 46.640625 33.386719 47.414062 34.15625 47.414062 35.109375 L 47.414062 42.007812 C 47.414062 42.957031 46.640625 43.730469 45.691406 43.730469 L 38.792969 43.730469 C 37.839844 43.730469 37.070312 42.957031 37.070312 42.007812 L 37.070312 35.109375 C 37.070312 34.15625 37.839844 33.386719 38.792969 33.386719 Z M 38.792969 33.386719 "/>
<path style=" stroke:none;fill-rule:nonzero;fill:rgb(91.764706%,95.294118%,98.039216%);fill-opacity:1;" d="M 38.792969 45.453125 L 45.691406 45.453125 C 46.640625 45.453125 47.414062 46.226562 47.414062 47.179688 L 47.414062 54.074219 C 47.414062 55.027344 46.640625 55.800781 45.691406 55.800781 L 38.792969 55.800781 C 37.839844 55.800781 37.070312 55.027344 37.070312 54.074219 L 37.070312 47.179688 C 37.070312 46.226562 37.839844 45.453125 38.792969 45.453125 Z M 38.792969 45.453125 "/>
<path style=" stroke:none;fill-rule:nonzero;fill:rgb(93.333333%,96.078431%,99.215686%);fill-opacity:1;" d="M 50.863281 33.386719 L 57.757812 33.386719 C 58.710938 33.386719 59.484375 34.15625 59.484375 35.109375 L 59.484375 42.007812 C 59.484375 42.957031 58.710938 43.730469 57.757812 43.730469 L 50.863281 43.730469 C 49.910156 43.730469 49.136719 42.957031 49.136719 42.007812 L 49.136719 35.109375 C 49.136719 34.15625 49.910156 33.386719 50.863281 33.386719 Z M 50.863281 33.386719 "/>
<path style=" stroke:none;fill-rule:nonzero;fill:rgb(93.333333%,96.078431%,99.215686%);fill-opacity:1;" d="M 50.863281 45.453125 L 57.757812 45.453125 C 58.710938 45.453125 59.484375 46.226562 59.484375 47.179688 L 59.484375 54.074219 C 59.484375 55.027344 58.710938 55.800781 57.757812 55.800781 L 50.863281 55.800781 C 49.910156 55.800781 49.136719 55.027344 49.136719 54.074219 L 49.136719 47.179688 C 49.136719 46.226562 49.910156 45.453125 50.863281 45.453125 Z M 50.863281 45.453125 "/>
<path style=" stroke:none;fill-rule:nonzero;fill:rgb(84.313725%,88.627451%,94.901961%);fill-opacity:1;" d="M 55.171875 60.972656 L 55.171875 74.765625 L 48.277344 74.765625 L 48.277344 59.246094 L 53.449219 59.246094 C 54.402344 59.246094 55.171875 60.019531 55.171875 60.972656 Z M 55.171875 60.972656 "/>
<path style=" stroke:none;fill-rule:nonzero;fill:rgb(84.313725%,88.627451%,94.901961%);fill-opacity:1;" d="M 50.863281 33.386719 L 57.757812 33.386719 C 58.710938 33.386719 59.484375 34.15625 59.484375 35.109375 L 59.484375 42.007812 C 59.484375 42.957031 58.710938 43.730469 57.757812 43.730469 L 50.863281 43.730469 C 49.910156 43.730469 49.136719 42.957031 49.136719 42.007812 L 49.136719 35.109375 C 49.136719 34.15625 49.910156 33.386719 50.863281 33.386719 Z M 50.863281 33.386719 "/>
<path style=" stroke:none;fill-rule:nonzero;fill:rgb(84.313725%,88.627451%,94.901961%);fill-opacity:1;" d="M 50.863281 45.453125 L 57.757812 45.453125 C 58.710938 45.453125 59.484375 46.226562 59.484375 47.179688 L 59.484375 54.074219 C 59.484375 55.027344 58.710938 55.800781 57.757812 55.800781 L 50.863281 55.800781 C 49.910156 55.800781 49.136719 55.027344 49.136719 54.074219 L 49.136719 47.179688 C 49.136719 46.226562 49.910156 45.453125 50.863281 45.453125 Z M 50.863281 45.453125 "/>
</g>
</svg>
