<?xml version="1.0" encoding="utf-8"?>
<!-- Generator: Adobe Illustrator 25.2.0, SVG Export Plug-In . SVG Version: 6.00 Build 0)  -->
<svg version="1.1" id="Layer_2" xmlns="http://www.w3.org/2000/svg" xmlns:xlink="http://www.w3.org/1999/xlink" x="0px" y="0px"
	 viewBox="0 0 3200 2000" style="enable-background:new 0 0 3200 2000;" xml:space="preserve">
<style type="text/css">
	.st0{opacity:0.5;fill:#DCEAFF;enable-background:new    ;}
	.st1{fill:#DFEBFA;}
	.st2{fill:#AFCDFB;}
	.st3{fill:#CEE1FD;}
	.st4{fill:#9FC1F4;}
	.st5{fill:#FF9843;}
	.st6{fill:#FFC48A;}
	.st7{fill:#77A4E5;}
	.st8{fill:#F5FBFF;}
	.st9{fill:#BDD1F9;}
	.st10{fill:#FFFFFF;}
	.st11{fill:#F99746;}
	.st12{fill:#FFB27D;}
	.st13{fill:#233862;}
	.st14{fill:#A9453D;}
	.st15{fill:#ED975D;}
	.st16{fill:#2A4E96;}
	.st17{fill:#5F9AA8;}
	.st18{fill:#1E3D70;}
	.st19{fill:#ED7D2B;}
	.st20{opacity:0.6;}
	.st21{fill:#163560;}
	.st22{fill:#DFEBFD;}
	.st23{fill:#F9DDBF;}
	.st24{fill:#F2CCAA;}
	.st25{fill:#1B3051;}
	.st26{fill:#1E3C68;}
	.st27{fill:#2B478B;}
</style>
<path class="st0" d="M3132,1945.4L3132,1945.4c-0.2,0.4-0.4,0.9-0.7,1.5c-1.7,3.3-3.4,6.7-5.2,10.2l-2747.2-0.9c0,0-2.7-3.2-7.5-9.6
	c-0.3-0.3-0.5-0.7-0.9-1.1c-12.3-16.2-37-50.3-65.9-98.4l0,0c-76.7-127.6-183-353.6-165.2-604.4c5-70.8,20-143.6,48.2-216.7
	c85.8-221.7,341.9-371.2,572.5-374.2c89.2-1.2,174.8,19.6,245.1,66.6c12.5,8.4,28.1,14.7,46.4,19.2c15.4,3.7,32.5,5.9,51.2,6.7
	c149.8,5.8,393.4-87,537.8-320.5c76.7-124.1,194.5-205.2,329.9-247.5c6.3-2,12.6-3.9,19-5.7c30.8-8.7,62.4-15.4,94.6-20.2
	c5.8-0.9,11.7-1.7,17.4-2.5c142.9-18.2,295.9,0.7,436.2,52.8c18.5,6.8,36.8,14.3,54.8,22.3c264.1,117.6,469.6,357.8,451.5,693.2
	c-0.7,13.3-1.8,26.7-3.2,40.3c-2.7,25.9-6.7,52.2-12.1,79.1c-3.2,15.8-6.8,31.9-11,48.1C2909.2,1508.6,3344.4,1527.8,3132,1945.4z"
	/>
<g>
	<path class="st1" d="M3132.7,1944h0.2l-2139.4,0.2l18.4-703.1V1050h81V901h159v127h49V794h10v-17h2v17h38v-17h2v17h55v-17h2v17h35
		v-17h2v17h14v219h53v-35l63,0.3V920h13v-11h2v11h49.8l0,0h9.2v-11h2v12h12v113h76v42h41v-23h39v-97h19v-45h4v45h47v-85h4v85h31
		v-1.5l0,0v-10.7l0,0v-10.1l0,0v-16.8l0,0v-10.8l0,0v-16.9l0,0v-10.8l0,0v-16.8l0,0v-11.6l0,0v-16.8l0,0v-14.8l0,0v-16.8l0,0V790h9
		v-13h1v13h68v-13h1v13h13v88h9l0,0h1.1l-1.1-16.7v-0.4v-11.2l0,0V833l0,0v-11l0,0v-18h0.1l0,0h82.4l0,0h14.2
		c0.9,0.9,1.4,1.4,2.2,2.2V918h15v-17h174v127h53V794h11v-17h2v17h43v-17h2v17h59v-17h2v17h38v-17h2v17h15v219h59v-35l70,0.3V920h13
		v-11h2v11h54.8l0,0h10.2v-11h2v12h13v113h82v42h45v-23h43v-97h21v-45h3v45h52v-85h5v84h25c-2.7,25.9-6.7,52.2-12.1,79.1
		c-3.2,15.8-6.8,31.9-11,48.1C2909.9,1507.2,3345.1,1526.4,3132.7,1944z"/>
</g>
<path class="st2" d="M2594,221.5V1944h-55V199.2C2557.6,206,2576,213.5,2594,221.5z"/>
<path class="st3" d="M1052,736.6v1209l0,0l0,0c-0.1,0-668.8,73.3-747.1-99.4l0,0c-76.7-127.6-183-353.6-165.2-604.4
	c5-70.8,20-143.6,48.2-216.7c36.4-94.1,250.7-378.9,572.5-374.2C818.5,651.6,926.5,662.5,1052,736.6z"/>
<g>
	<path class="st4" d="M2101,146.9V359c0,16.5-3.5,30-7.9,30h-1.1c-4.4,0-7.9-13.5-7.9-30V149.2
		C2089.6,148.5,2095.4,147.7,2101,146.9z"/>
	<path class="st5" d="M2088.7,338.1c-63.5,0-115.1,59.9-115.1,133.9h230.2C2203.8,398,2152.2,338.1,2088.7,338.1z"/>
	<path class="st6" d="M2097.9,339.8c-3.3-0.8-6.6-1.2-10.1-1.2c-41.4,0-75,59.7-75,133.4h20.2
		C2032.9,404.4,2061.2,348.5,2097.9,339.8z"/>
</g>
<g>
	<g>
		<path class="st7" d="M2846.7,1747c0,0-30.6-39.3-1.9-64.3c0,0,21-13.9,38.1-12.8c0,0-24.3,44.7-16.4,49.2c7.8,4.5,23.7-52,23.7-52
			s47.8-5.1,63.1,3c0,0-40.9,36.7-32.2,38.9s52.7-33.9,52.7-33.9s44.5,8.4,42.1,38.2c-2.4,29.8-17.6,39-24.4,38.3
			c-6.7-0.8-46.1-17.3-47-11.3c-0.9,6,22.9,25.9,39.5,26.9c0,0-31.3,38-52.2,27c-20.9-10.9-22.6-28.3-35.6-34.9
			c-12.9-6.5-24.1-6.5-18.7,0.1c5.3,6.7,28.9,13.2,36.3,27.6c7.4,14.5,14.1,24.2-7.5,20.6c-21.6-3.6-56.6-20.9-58.2-40.7
			C2846.7,1747,2846.7,1747,2846.7,1747z"/>
		<g>
			<path class="st7" d="M2994.1,1714.2c0,0-120.8-5.1-147.4,32.9c0,0-5.9,19.4-24.1,37.2l-2.8,8.5c0,0,21-24.3,28.5-25.8
				C2848.2,1766.9,2836.5,1719.9,2994.1,1714.2z"/>
			<path class="st7" d="M2822.7,1784.1c0,0-25.9,21.1-27.7,58.8l4.7,0.4c0,0,8.2-38.9,23.2-54.2
				C2837.9,1774,2822.7,1784.1,2822.7,1784.1z"/>
		</g>
	</g>
	<g>
		<path class="st7" d="M2739.6,1697.7c0,0,48.8-30,26-70.7c0,0-18.2-25-37.7-31.5c0,0,10.4,60.7,0,62.1c-10.4,1.5-7.2-68.6-7.2-68.6
			s-51.3-27.1-71.5-25c0,0,31.9,59.4,21.4,57.9c-10.5-1.5-46.1-61.5-46.1-61.5s-52.6-10.7-61.1,23.5c-8.5,34.3,5.2,51.4,12.9,53.6
			c7.8,2.1,57.9,1.5,56.5,8.6c-1.3,7.1-35.1,18.6-53.9,12.2c0,0,20.8,56.5,48,53.6s35.7-21.4,52.6-22.9s29.2,3.6,20.8,8.6
			c-8.5,5-37,1.7-50.7,14.4s-24.7,20.6,0.6,26.3c25.4,5.7,70.8,2.1,79.9-19.3C2739.6,1697.7,2739.6,1697.7,2739.6,1697.7z"/>
		<g>
			<path class="st7" d="M2588.1,1594.7c0,0,136.4,48.6,152,102.9c0,0-0.6,24.3,12.9,52.1v10.7c0,0-14.3-36.5-22.1-41.4
				C2731,1719.1,2761.6,1671.9,2588.1,1594.7z"/>
			<path class="st7" d="M2752.6,1749.8c0,0,21.1,35.1,9.1,77.9l-5.5-1.6c0,0,5.2-47.1-5.8-70.8
				C2739.5,1731.6,2752.6,1749.8,2752.6,1749.8z"/>
		</g>
	</g>
	<g>
		<path class="st4" d="M2817.1,1656.3c0,0-64.3-39.6-34.2-93.3c0,0,24-32.9,49.6-41.4c0,0-13.7,80.1,0,81.9
			c13.7,1.9,9.4-90.4,9.4-90.4s67.6-35.8,94.2-32.9c0,0-41.9,78.2-28.2,76.3c13.7-1.9,60.8-81,60.8-81s69.3-14.2,80.5,31.1
			c11.1,45.2-6.8,67.8-17.1,70.6c-10.3,2.8-76.3,1.9-74.6,11.3c1.7,9.4,46.2,24.5,71,16c0,0-27.4,74.4-63.3,70.6
			c-35.9-3.8-47.1-28.2-69.3-30.1c-22.2-1.9-38.5,4.7-27.4,11.3c11.1,6.6,48.8,2.1,66.7,19c18,16.8,32.5,27.2-0.9,34.7
			c-33.4,7.6-93.4,2.8-105.4-25.4S2817.1,1656.3,2817.1,1656.3z"/>
		<g>
			<path class="st4" d="M3017.5,1520.6c0,0-179.8,64-200.4,135.7c0,0,0.9,32-17.1,68.7v14.2c0,0,18.8-48.1,29.1-54.7
				C2829.1,1684.5,2788.9,1622.4,3017.5,1520.6z"/>
			<path class="st4" d="M2800,1725c0,0-27.7,46.3-11.9,102.8l7.2-2.1c0,0-7-62.1,7.6-93.4C2817.4,1701,2800,1725,2800,1725z"/>
		</g>
	</g>
	<path class="st4" d="M2815,1949.3c69.5,0,125.8-61.9,125.8-138.3h-251.6C2689.2,1887.4,2745.4,1949.3,2815,1949.3z"/>
	<path class="st2" d="M2845.9,1948.2c-5.1,0.7-10.4,1.1-15.6,1.1c-69.5,0-125.8-61.9-125.8-138.3h31.2
		C2735.7,1881.5,2783.7,1939.8,2845.9,1948.2z"/>
	<rect x="2685" y="1812" class="st4" width="259" height="4"/>
</g>
<g>
	<g>
		<path class="st7" d="M2229.2,1943.1l-123.7-564.3l8.7-22.2l122.5,586.5c0.3,1.5-0.7,2.9-2.1,2.9h-2
			C2230.9,1946,2229.5,1944.8,2229.2,1943.1z"/>
	</g>
	<g>
		<g>
			<path class="st7" d="M1671.3,1946L1671.3,1946c-2.6,0-4.5-2.5-4.1-5.2l36.4-242.8h15.6l-43.4,243.9
				C1675.3,1944.3,1673.4,1946,1671.3,1946z"/>
		</g>
		<g>
			<path class="st7" d="M2020.5,1946L2020.5,1946c-2.6,0-4.5-2.5-4.1-5.2l36.4-242.8h15.6l-43.4,243.9
				C2024.7,1944.3,2022.8,1946,2020.5,1946z"/>
		</g>
		<polygon class="st8" points="2105.2,1699 1670.5,1699 1760.5,1078 2195.3,1078 		"/>
		<rect x="1638" y="1694" class="st7" width="500" height="18"/>
		<g>
			<path class="st9" d="M1932.7,1207.3c-0.3,4.9-1,9.7-1.9,14.5c-9.1,44.4-45,78.4-85.7,78.5c-44.9,0.1-78.6-41.4-75.2-92.6
				c3.4-51.2,42.7-92.8,87.6-92.9c9.4,0,18.3,1.8,26.5,5.1c3.6,1.5,7.3,3.3,10.6,5.4c7.3,4.6,13.8,10.4,19.3,17.3
				c3,3.8,5.8,8,8.1,12.5c1.4,2.6,2.7,5.2,3.7,8c3.2,7.7,5.3,16.1,6.4,24.9c0.5,4.5,0.7,8.9,0.7,13.6
				C1932.9,1203.4,1932.8,1205.3,1932.7,1207.3z"/>
			<path class="st10" d="M1925.8,1163l-74.5,44.4c0,0,30.7-59.5,43.3-82.2c7.3,4.6,13.8,10.4,19.3,17.3c3,3.8,5.8,8,8.1,12.5
				C1923.4,1157.6,1924.7,1160.2,1925.8,1163z"/>
			<path class="st11" d="M1933.6,1151.8l-68,40.6c0,0,28-54.3,39.6-75.1c6.6,4.1,12.5,9.5,17.5,15.8c2.8,3.6,5.2,7.4,7.5,11.4
				C1931.3,1146.8,1932.5,1149.3,1933.6,1151.8z"/>
		</g>
		<g>
			<g>
				<path class="st9" d="M2071.2,1652h-359.2l36.4-228h359.2L2071.2,1652z M1715.2,1650h353.6l35.6-223h-353.6L1715.2,1650z"/>
			</g>
			<g>
				<path class="st11" d="M2049.3,1621h-317.5c0,0,56.3-33.2,71.8-31.5c15.5,1.8,37.7,15.2,51.9,15.7c14.2,0.6,29.7-46.6,45.7-44.4
					c15.9,2.2,21.8,44,30.1,39.8c8.2-4.1,32.9-5.8,47.2,0c14.2,5.8,35-18.5,47.5-17.9C2038.4,1583.6,2049.3,1621,2049.3,1621z"/>
				<g>
					<polygon class="st11" points="1808.2,1554 1747.5,1554 1748.1,1551 1808.7,1551 					"/>
					<polygon class="st11" points="1807,1560 1746.4,1560 1746.9,1557 1807.5,1557 					"/>
				</g>
			</g>
			<g>
				<path class="st9" d="M1750,1507h317.5c0,0-45.7-33.2-61.7-31.5s-42.5,15.2-56.9,15.7c-14.4,0.6-14.9-46.6-31.4-44.4
					c-16.6,2.2-35.8,44-42.8,39.8c-7-4.1-31-5.8-47.2,0c-16,5.8-29.1-18.5-41.8-17.9C1772.8,1469.6,1750,1507,1750,1507z"/>
				<g>
					<polygon class="st9" points="1825.3,1445 1764.6,1445 1765.2,1442 1825.8,1442 					"/>
					<polygon class="st9" points="1823.2,1453 1764.5,1453 1765,1450 1823.7,1450 					"/>
				</g>
			</g>
		</g>
		<g>
			<polygon class="st9" points="1770.5,1392 1756.8,1392 1768.7,1321 1782.5,1321 			"/>
			<polygon class="st9" points="1789.6,1393 1775.5,1393 1785,1337 1798.9,1337 			"/>
			<polygon class="st9" points="1808.5,1393 1794.6,1393 1804.3,1335 1818.2,1335 			"/>
			<polygon class="st9" points="1827.5,1393 1813.3,1393 1821,1348 1835.1,1348 			"/>
			<polygon class="st9" points="1846.5,1392 1832.5,1392 1840.5,1345 1854.3,1345 			"/>
			<polygon class="st9" points="1865.4,1393 1851.4,1393 1857.7,1356 1871.7,1356 			"/>
		</g>
		<g>
			<polygon class="st11" points="1956.9,1392 1943,1392 1955.1,1321 1968.8,1321 			"/>
			<polygon class="st11" points="1975.8,1393 1961.8,1393 1971.2,1337 1985.3,1337 			"/>
			<polygon class="st11" points="1994.7,1393 1980.8,1393 1990.6,1335 2004.6,1335 			"/>
			<polygon class="st11" points="2013.8,1393 1999.6,1393 2007.2,1348 2021.4,1348 			"/>
			<polygon class="st11" points="2032.7,1392 2018.9,1392 2026.7,1345 2040.7,1345 			"/>
			<polygon class="st11" points="2051.7,1393 2037.7,1393 2043.9,1356 2057.9,1356 			"/>
		</g>
		<g>
			<g>
				<polygon class="st9" points="2024.5,1158 1977.9,1158 1979.1,1151 2025.7,1151 				"/>
				<polygon class="st9" points="2080.2,1158 2028.7,1158 2029.9,1151 2081.4,1151 				"/>
				<polygon class="st9" points="2115.6,1158 2082.7,1158 2083.9,1151 2116.8,1151 				"/>
				<polygon class="st9" points="2145.3,1158 2120,1158 2121.2,1151 2146.5,1151 				"/>
			</g>
			<g>
				<polygon class="st9" points="2019.5,1188 1972.9,1188 1974.1,1181 2020.8,1181 				"/>
				<polygon class="st9" points="2075.2,1188 2023.7,1188 2025,1181 2076.4,1181 				"/>
				<polygon class="st9" points="2110.6,1188 2077.8,1188 2079,1181 2111.8,1181 				"/>
				<polygon class="st9" points="2140.3,1188 2114.9,1188 2116.1,1181 2141.4,1181 				"/>
			</g>
			<g>
				<polygon class="st9" points="2050.2,1142 1981.8,1142 1983,1135 2051.4,1135 				"/>
				<polygon class="st9" points="2098.1,1142 2056.8,1142 2058,1135 2099.3,1135 				"/>
				<polygon class="st9" points="2148.3,1142 2102.6,1142 2103.8,1135 2149.5,1135 				"/>
			</g>
			<g>
				<polygon class="st9" points="2045,1173 1976.6,1173 1977.6,1166 2046.1,1166 				"/>
				<polygon class="st9" points="2092.7,1173 2051.6,1173 2052.8,1166 2093.9,1166 				"/>
				<polygon class="st9" points="2143,1173 2097.2,1173 2098.4,1166 2144.2,1166 				"/>
			</g>
			<g>
				<polygon class="st9" points="2014.5,1217 1968,1217 1969.2,1210 2015.7,1210 				"/>
				<polygon class="st9" points="2070.2,1217 2018.7,1217 2019.9,1210 2071.4,1210 				"/>
				<polygon class="st9" points="2105.7,1217 2072.8,1217 2074,1210 2106.8,1210 				"/>
				<polygon class="st9" points="2135.3,1217 2110,1217 2111.2,1210 2136.5,1210 				"/>
			</g>
			<g>
				<polygon class="st9" points="2040,1202 1971.6,1202 1972.7,1195 2041.1,1195 				"/>
				<polygon class="st9" points="2087.8,1202 2046.6,1202 2047.8,1195 2089,1195 				"/>
				<polygon class="st9" points="2138.1,1202 2092.3,1202 2093.5,1195 2139.3,1195 				"/>
			</g>
			<g>
				<polygon class="st9" points="2009.9,1244 1963.3,1244 1964.5,1237 2011.1,1237 				"/>
				<polygon class="st9" points="2065.6,1244 2014.1,1244 2015.3,1237 2066.7,1237 				"/>
				<polygon class="st9" points="2101,1244 2068.2,1244 2069.4,1237 2102.2,1237 				"/>
				<polygon class="st9" points="2130.7,1244 2105.3,1244 2106.5,1237 2131.8,1237 				"/>
			</g>
			<g>
				<polygon class="st9" points="2035.4,1230 1966.9,1230 1968,1223 2036.4,1223 				"/>
				<polygon class="st9" points="2083.1,1230 2041.9,1230 2043.1,1223 2084.3,1223 				"/>
				<polygon class="st9" points="2133.3,1230 2087.6,1230 2088.8,1223 2134.6,1223 				"/>
			</g>
		</g>
		<g>
			<polygon class="st9" points="1906.1,1332 1883.9,1332 1884.5,1329 1906.7,1329 			"/>
			<polygon class="st9" points="1933.3,1332 1908.8,1332 1909.4,1329 1933.9,1329 			"/>
			<polygon class="st9" points="1903.7,1346 1881.5,1346 1882.1,1343 1904.2,1343 			"/>
			<polygon class="st9" points="1930.9,1346 1906.4,1346 1906.9,1343 1931.4,1343 			"/>
			<polygon class="st9" points="1919.3,1324 1885.2,1324 1885.8,1321 1919.9,1321 			"/>
			<polygon class="st9" points="1942.1,1324 1922.5,1324 1923.1,1321 1942.8,1321 			"/>
			<polygon class="st9" points="1916.8,1338 1882.6,1338 1883.3,1335 1917.3,1335 			"/>
			<polygon class="st9" points="1939.5,1338 1920,1338 1920.5,1335 1940.2,1335 			"/>
		</g>
		<g>
			<polygon class="st9" points="2083.8,1332 2061.6,1332 2062.2,1329 2084.4,1329 			"/>
			<polygon class="st9" points="2111,1332 2086.5,1332 2087.2,1329 2111.7,1329 			"/>
			<polygon class="st9" points="2081.4,1346 2059.2,1346 2059.8,1343 2081.9,1343 			"/>
			<polygon class="st9" points="2108.6,1346 2084.1,1346 2084.7,1343 2109.2,1343 			"/>
			<polygon class="st9" points="2097,1324 2063,1324 2063.5,1321 2097.5,1321 			"/>
			<polygon class="st9" points="2119.9,1324 2100.2,1324 2100.8,1321 2120.4,1321 			"/>
			<polygon class="st9" points="2094.4,1338 2060.4,1338 2061,1335 2095,1335 			"/>
			<polygon class="st9" points="2117.3,1338 2097.6,1338 2098.3,1335 2117.9,1335 			"/>
		</g>
	</g>
</g>
<g>
	<g>
		<path class="st12" d="M2201.8,1936.9c-0.7,11.7-15.7,11.8-32.7,9.6c-17-2.1-12.5,2.6-36.3,2.9c-23.9,0.3-32-8.3-33.2-12
			c-1.1-3.3,10.5-6.1,22.7-9.4c1.5-0.4,3.1-0.8,4.6-1.2c13.8-3.9,23-15.3,34.9-25.2c11.2-9.4,25.7-43.5,25.7-43.5l32.5-1.6
			c0,0-13.7,30.6-18.8,43.7c-3,7.7-1.7,17.3-0.4,24.5C2201.4,1928.6,2202.1,1932.7,2201.8,1936.9z"/>
		<path class="st13" d="M2169.1,1946.5c-17-2.1-12.5,2.6-36.3,2.9c-23.9,0.3-32-8.3-33.2-12c-1.1-3.3,10.5-6.1,22.7-9.4l0.1,0.2
			c0,0,15.3,9,34.9,6.9c15.9-1.8,32.3-9.1,43.3-10.4c0.7,4,1.4,8,1.1,12.2C2201.1,1948.5,2186.1,1948.6,2169.1,1946.5z"/>
	</g>
	<g>
		<path class="st12" d="M2426.5,1939.2c-0.7,11.7-15.7,11.8-32.7,9.7c-17-2.1-12.5,2.6-36.3,3c-23.9,0.4-32-8.3-33.2-11.9
			c-1.1-3.3,10.5-6.1,22.7-9.4c1.5-0.4,3.1-0.9,4.6-1.2c13.8-3.9,23-15.3,34.8-25.2c11.2-9.5,0-65.3,0-65.3l35.7-3.8
			c0,0-1.7,47-1.7,68.4c0,8.5,3.5,16.5,4.8,23.9C2426,1931.1,2426.7,1935.1,2426.5,1939.2z"/>
		<path class="st13" d="M2393.6,1948.9c-17-2.1-12.5,2.6-36.3,3c-23.9,0.4-32-8.3-33.2-11.9c-1.1-3.3,10.5-6.1,22.7-9.4l0.1,0.2
			c0,0,15.3,9,35,6.8c15.9-1.8,32.3-9.1,43.3-10.5c0.7,4,1.4,8,1.2,12.2C2425.6,1950.9,2410.6,1951,2393.6,1948.9z"/>
	</g>
	<path class="st14" d="M2322.1,974.7c-6.2-27.9,2.8-40.8,10.8-47.8c3.9-10.3,8.1-17.6,12.6-20.4c8.1-5.1,17.9-5.6,24.7-5.2
		c-1.7-2-5.2-2.7-5.2-2.7c4.3-0.7,13.7,3.9,13.7,3.9c58.7-24.9,68,70.3,66.7,92.4c-1.2,22.1-1.1,48.1,29.5,65.6
		c58.3,33.2-19.4,158.4-19.4,158.4c1.5-17.9-73.5-112.1-112.5-140.4c-9.5-15.4-12.9-42.6-13.2-44.7c1.6,21.6,5,33.7,8,40.5
		C2320,1056.3,2317.4,1013,2322.1,974.7z"/>
	<path class="st12" d="M2345.3,1079.9c-0.2,0.1,18.8,10.9,33.3,6.7c13.5-4,22.4-23.3,22.1-23.3c-5.7-1.2-7.4-9.9-7.3-47l-2.6,0.6
		l-43.4,9.5c0,0,1,15.1,1.1,29.2C2348.4,1067.4,2347.7,1078.7,2345.3,1079.9z"/>
	<path class="st15" d="M2347.3,1026.4c0,0,1,15.1,1.1,29.2c24.3-0.8,37.1-25.1,42.5-38.7L2347.3,1026.4z"/>
	<path class="st16" d="M2170.6,1876.5c-2.1,7.4,2.7,15,9.6,15.3l17,0.9l18,0.6c4.5,0.1,8.8-2,11.7-5.8
		c14.3-19.3,58.5-83.8,85.3-177.5c0.7-2.7,1.5-5.2,2.4-7.9c17.6-56.7,54.3-127.9,73.6-192.2c3.1-10.3,5.9-19.9,8.3-29
		c0.7-2.9,1.6-5.8,2.2-8.6c14.2-54.3,18.4-90,22.1-128.2l-139.5,1.2C2281.3,1345,2252,1596,2170.6,1876.5z"/>
	<path class="st10" d="M2300.9,1257.4c0.3,73-9.7,104.3-9.7,104.3s59.7,33.4,130.7,8.8c0.9-0.3,50.8-15.8,50.8-15.8
		c-1.2-2.9-11-51.8-12.2-54.4c-15-35.4-19-50.2-20.9-61.1c-3.3-20.3-3.3-41.3-1.7-61.1c4.4-52.4,17.2-96.1,17.2-96.1
		c-19.4-4.8-37.4-13.4-57.5-21.6c-4.6,6.4-18.8,12.9-31,12.7c-14.1-0.3-18.7-7-18-14.3c-15.1,9.3-27.1,18-27.1,18
		c-12.8,24.4-38.7,48.2-40.6,85.7C2280.2,1171.5,2300.9,1255.3,2300.9,1257.4z"/>
	<path class="st17" d="M2420.8,1265.4c6.1,9.5,17.8,67.2,46.9,74.4c-15-41.1-26.3-59.1-28.1-71.7c-3.3-23.5-3.3-48-1.7-71.1
		c-9.7-18.7-17-31.6-17-31.6c-0.7-3-15.5-53-20.2-8.4C2396,1201.9,2413.9,1254.8,2420.8,1265.4z"/>
	<path class="st12" d="M2339.3,1039.7c0,0,57.5,1,57.5-38.4c0-39.4,7.5-65.8-29.2-68.2c-36.7-2.3-43.9,12.7-46.9,25.9
		C2317.8,972.2,2324.3,1038.4,2339.3,1039.7z"/>
	<path class="st14" d="M2341.3,932.2c0,0,15.7,46.2,39.9,53.1c24.2,6.8,34.7-0.3,34.7-0.3s-18.5-16.2-22.4-44.5
		C2393.5,940.6,2353.3,910.2,2341.3,932.2z"/>
	<path class="st14" d="M2345.3,936c0,0-11.8,10.3-14.7,20.3c-2.9,10-4.2,30.7-9.6,30c0,0-11.9-31.5,1.5-49.2
		C2336.6,918.2,2345.3,936,2345.3,936z"/>
	<polygon class="st12" points="2248.7,1308.1 2221.5,1399.1 2237,1405.9 2281.9,1325.5 	"/>
	<path class="st11" d="M2322,1071.2c0,0-32.1,13.9-41.3,35.8c-9.3,21.8-23.3,168-28.9,183c-5.6,15.1-9.8,26.9-9.8,26.9
		s16.2,15,32.4,16.1C2290.6,1334.1,2322,1071.2,2322,1071.2z"/>
	<path class="st11" d="M2348.4,1058.6c0,0-33.3,90.4-34.2,108.7s-4,299.2-4,299.2s1.9,12.9-20.5,7.6c-22.5-5.4-28.3-10.8-28.3-10.8
		s21.5-173.3,15.6-233.6c-5.9-60.2,45-158.7,45-158.7L2348.4,1058.6z"/>
	<path class="st18" d="M2197.2,1893.1l19.5,0.7c3.5,0.1,6.8-1.6,9.1-4.5c13.2-17.5,58.8-82.8,86.3-178.8c0.7-2.7,1.5-5.2,2.4-7.9
		c17.6-56.7,54.3-127.9,73.6-192.2c3.1-10.3,5.9-19.9,8.3-29c0.7-2.9,1.6-5.8,2.2-8.6l-20.5-17.2c0,0-61.6,109.8-80.8,213.1
		C2280.8,1758.2,2214.3,1866.2,2197.2,1893.1z"/>
	<path class="st16" d="M2376,1678.3c-0.3,47.5,1.7,153.5,7,205.3c0.5,4.8,4.2,8.4,8.5,8.4h14.5c6.1,0,10.7,0,13.8-0.1
		c2.7,0,4.9-2.1,5.3-5c14.4-81,24.8-148.3,32.4-206.4c6.3-48.6,12-90.4,16.4-126.3c4.4-36.1,7.4-66.4,8.5-91.9
		c0.2-4,0.3-7.9,0.3-11.7c0.1-3.8,0.1-7.6,0.1-11.2l-120.4-12.9C2363.8,1514.5,2376.2,1649.1,2376,1678.3z"/>
	<path class="st18" d="M2405.9,1891.7c5.6,0,9.7,0,12.8-0.1c3.2,0,6-2.6,6.5-6c14.3-80.6,24.7-147.5,32.2-205.3
		c6.3-48.6,12-90.4,16.4-126.3c4.4-36.1,7.4-66.4,8.5-91.9l-44.2,28.6c0,0,28.2,10.9,17.4,93.8
		C2444.8,1667.3,2420.9,1880,2405.9,1891.7z"/>
	<path class="st11" d="M2400.3,1461.3c0,0,8.5,33.7,37.9,29.5c29.3-4.4,71.1-23.7,71.1-23.7s-12.5-43.6-28.1-100.9
		c-18.9-69.4-42.3-158.8-53.3-215.2c-3.1-15.8-5.2-29-6-38.5l-24.4-52c0,0-36.4,89.7-38.3,112.2
		C2357.1,1195.3,2400.3,1461.3,2400.3,1461.3z"/>
	<path class="st12" d="M2429.5,1169.4l-32.2-108.9c0.1,0,40.6,13.3,61,24.5c0,0,12.7,18.1,20.6,59.7c0,0,8.3,100.1-10.3,136.7
		c0,0-58.7,12.9-152.6-22.6v-23.7c0,0,102.8,5.9,123.9,8.6L2429.5,1169.4z"/>
	<path class="st19" d="M2401.5,1220c1.3,36.6,9.1,107.7,78.9,145.7c0.2,0.1,0.3,0.2,0.5,0.3c-18.9-69.4-42.3-158.8-53.3-215.2
		C2415,1172,2400.9,1200,2401.5,1220z"/>
	<path class="st11" d="M2397.5,1060.5c0,0,59.6,4.6,73.9,39.8c14.3,35.1,18.9,152.2,0.6,186.5c0,0-25.1,7.9-69.6-1.2
		c-0.5-0.1-1.1-0.2-1.6-0.3c0,0-14.2-38.3-1.5-45.7c0,0,37.5,2.1,33.6-11.5C2428.9,1214.3,2397.5,1060.5,2397.5,1060.5z"/>
	<g>
		<path class="st14" d="M2248,1249.8l1.7,6.2l97.8-33.5c0,0,1.3-1.7,0.6-3.8c-0.7-2.5-2.5-2.5-2.5-2.5L2248,1249.8z"/>
		<polygon class="st14" points="2241,1255.6 2248,1249.8 2249.8,1256 		"/>
	</g>
	<path class="st12" d="M2225.4,1396.7c0,0-24.8,15.1-28,26.6c-3.3,11.5-1.1,35.6,2.9,35.1c4-0.3,9.8-25.9,13.1-27.7
		c3.3-1.8,7.8-7.1,7.8-3.2s-3.3,11.2-1.6,12.2c1.6,1.1,6.8-10,10.5-12.2c3.6-2.1,5.1-19.9,8.6-24.7
		C2241.9,1398,2225.4,1396.7,2225.4,1396.7z"/>
	<path class="st12" d="M2316.1,1235.1c0,0-22.1-15.1-31.4-12.7c-9.3,2.3-33.1,21.2-21.6,25.3c11.4,4.1,20.6-0.2,25,2.8
		c4.4,3,7.6,8.4,28,8.4C2336.5,1258.8,2316.1,1235.1,2316.1,1235.1z"/>
</g>
<g>
	<g class="st20">
		<g>
			<path class="st7" d="M1241.6,1946h-0.3c-2.1,0-3.9-1.9-3.9-4.4l5.8-277.7l17.1-2.2l-14.7,279.9
				C1245.5,1944.1,1243.7,1946,1241.6,1946z"/>
		</g>
		<g>
			<path class="st7" d="M1141.6,1946h-0.3c-2.1,0-3.9-1.9-3.9-4.4l5.8-277.7l17.1-2.2l-14.7,279.9
				C1145.5,1944.1,1143.7,1946,1141.6,1946z"/>
		</g>
		<g>
			<path class="st7" d="M1417.5,1946h0.3c2.1,0,3.9-1.9,3.9-4.4l-5.8-277.7l-17.1-2.2l14.7,279.9
				C1413.5,1944.1,1415.3,1946,1417.5,1946z"/>
		</g>
		<path class="st7" d="M1130,1646.8v-190.2c0-33.5,24.7-60.6,55.1-60.6h124.7c30.5,0,55.1,27.1,55.1,60.6v197.6L1130,1646.8z"/>
		<path class="st7" d="M1388,1676h-241.4c-9.1,0-16.6-8.1-16.6-18.2V1646h258V1676z"/>
		<path class="st7" d="M1415.8,1676h-181.7c-6.7,0-12.2-6-12.2-13.4v-3.1c0-7.4,5.4-13.4,12.2-13.4h181.7c6.7,0,12.2,6,12.2,13.4
			v3.1C1428.1,1670,1422.6,1676,1415.8,1676z"/>
	</g>
	<g>
		<path class="st12" d="M1552.5,1835.2c1.7,9.6,14.1,7.9,28,4.2c13.9-3.7,10.6,0.7,30.3-1.7c19.7-2.5,25.7-10.5,26.3-13.7
			c0.5-2.9-9.2-3.9-19.7-5.2c-1.3-0.1-2.7-0.3-4-0.6c-11.8-1.7-20.4-10-31.1-16.8c-10.2-6.5-25.2-33-25.2-33l-27.1,2.3
			c0,0,14.2,23.7,19.7,34c3.2,6,3.1,14.1,2.7,20.3C1552.1,1828.4,1551.9,1831.9,1552.5,1835.2z"/>
		<path class="st13" d="M1580.4,1839.5c13.8-3.7,10.6,0.7,30.3-1.7c19.7-2.5,25.7-10.5,26.3-13.7c0.5-2.9-9.2-3.9-19.7-5.2l-0.1,0.2
			c0,0-11.8,9.3-28.2,9.6c-13.4,0.3-27.5-3.9-36.8-3.7c-0.2,3.3-0.4,6.8,0.2,10.2C1554.2,1844.8,1566.6,1843.3,1580.4,1839.5z"/>
		<path class="st12" d="M1320.2,1878.1c-5.3,7.8,4,17,15.6,25.9c11.7,8.9,6.5,9.1,21.2,23.9c14.7,14.6,24.2,14.3,26.7,12.6
			c2.4-1.5-3.4-10.2-9.4-19.6c-0.7-1.2-1.5-2.5-2.2-3.6c-6.7-10.8-6.7-23.4-9.1-36.8c-2.2-12.7,16.6-59.2,16.6-59.2l-30.3-4.2
			c0,0-4,28.1-7.4,39.5c-2,6.7-10.4,11-14.9,14.8C1324.6,1873.2,1322.1,1875.3,1320.2,1878.1z"/>
		<path class="st13" d="M1335.8,1904c11.7,8.9,6.5,9.1,21.2,23.9c14.7,14.6,24.2,14.3,26.7,12.6c2.4-1.5-3.4-10.2-9.4-19.6l-0.2,0.1
			c0,0-14.1-3.7-25.2-16.8c-9.1-10.8-15.6-25.2-21.8-32.8c-2.5,2-4.9,4.1-6.8,6.9C1314.8,1885.8,1324.2,1894.9,1335.8,1904z"/>
		<path class="st21" d="M1443.6,1639.9l-27.6,81.8l-36,106.8c0,0-9.7,1-19.1-1.9c-8.7-2.8-18.5-9.9-18.5-9.9s10.1-114.6,28.7-180.4
			c4.8-16.8,10.2-30.6,16-38.3C1416,1560.2,1443.6,1639.9,1443.6,1639.9z"/>
		<path class="st16" d="M1415.6,1509.7c-18.1-6.5-72.6-2.6-124.5,8.6l-7.9-15.3l-112-9.6c0,0-36.9,90.1-16.7,147.5
			c3,8.5,8.9,13.8,18.9,14.1h1.6c0,0,66.6,0,88.2,0c55.7,0,117.9-42.1,125.9-43.8c13.2-2.9,18.4,26.1,31.6,56.5
			s123.8,134.7,123.8,134.7s17,0.2,24-2.7c7.6-3.1,10.3-7.1,10.3-7.1S1456.4,1524.2,1415.6,1509.7z"/>
		<path class="st13" d="M1244,1130.6c-15.7-4.1-37.1,0.7-40.8,1.2c-42.6,5.5-52,78.1-48.9,98.4c5.8,37.5-10.5,48-30.1,78
			c-39.2,60-12.1,109.4,19.8,121.7c19.1,7.4,45.1-12.7,45.1-12.7c0.5,0.2,67.6-70.3,100.9-104.5
			C1346,1287.4,1284.1,1141.2,1244,1130.6z"/>
		<path class="st12" d="M1253.1,1301.9c0.2,0.1-17.3,12.6-31.6,10c-13.4-2.5-27.6-21.8-27.5-21.8c5.5-1.8,10.3-8.8,6.8-44.7l2.6,0.2
			l42.9,4.6c0,0,0.3,14.6,1.6,28.3C1249,1290.1,1250.6,1300.9,1253.1,1301.9z"/>
		<path class="st15" d="M1246.4,1250.2c0,0,0.3,14.6,1.6,28.3c-23.6,1.9-38.2-20.4-44.5-32.9L1246.4,1250.2z"/>
		<path class="st12" d="M1255.4,1262.3c0,0-55.6,7.1-59.2-31c-3.5-38.2-13.1-62.9,22.2-69.1c35.4-6.1,43.6,7.6,47.6,20.1
			C1270.1,1194.6,1269.8,1259.4,1255.4,1262.3z"/>
		<path class="st13" d="M1259.5,1162.6c0,0-26.8,42.3-49.6,51.4c-22.8,9.1-33.6,3.5-33.6,3.5s10.9-16.5,14.4-39.2
			c1.1-6.7,5.2-12.3,11.1-14.5C1218.3,1157.7,1249.7,1148,1259.5,1162.6z"/>
		<path class="st13" d="M1237.3,1165.7c0,0,14.3,9,20.1,17.1c5.6,7.8,11.4,28.5,10.6,37.6c0,0,9.1-43.4-5.5-59.1
			C1247.2,1144.4,1237.3,1165.7,1237.3,1165.7z"/>
		<path class="st10" d="M1295.8,1403.1c-1.7,123.5-0.4,97.7-12.7,109.4c-3,2.8-11.2,4.5-22.2,5.2c-34.4,2.6-95-3.7-97.2-10.7
			c-7.9-24.2-2.4-31.7-9-68.8c-0.6-3.9-1.5-8.3-2.6-12.8c-5.6-25.4-10.9-34.1,8.7-75.1c17.8-37,37-66.6,38.6-65.6
			c47,30.6,50,4.5,50,4.5S1296.7,1342.9,1295.8,1403.1z"/>
		<path class="st16" d="M1416,1721.5l-36.9,111.1c0,0-13.3,4.8-22.9,3.2c-9.8-1.6-15.2-7.5-15.2-7.5s11.2-126.6,30-192.3
			L1416,1721.5z"/>
		<path class="st10" d="M1249.4,1289.2c0,0,48.2,9,53.9,31.9c5.7,22.9,47.1,148.8,47.1,148.8s-32.6,13.3-44,0.8
			c-11.3-12.5-39.5-115.7-39.5-115.7L1249.4,1289.2z"/>
		<path class="st22" d="M1260.8,1517.8c-34.4,2.6-95-3.7-97.2-10.7c-7.9-24.2-2.4-31.7-9-68.8l16.2-40.5c0,0-2.2,46.3,13.1,61.4
			c15.3,15.1,62.9,29.1,70.4,41.7C1257.8,1506.9,1260.2,1513,1260.8,1517.8z"/>
		<g>
			<path class="st12" d="M1263.7,1491.5c0,0,10.3,9.7,13.2,10.5c2.9,0.8,4.6,0.1,4.6,0.1l-7.5-9.6L1263.7,1491.5z"/>
			<path class="st12" d="M1259.6,1480l26,7.4c0,0-0.6,2-3.6,2.6c-2.9,0.4-10.8-0.8-10.8-0.8L1259.6,1480z"/>
			<path class="st12" d="M1215.6,1495.7c0,0,37.1-18.2,44.1-15.7c7,2.5,24.8,12.8,27.6,17.2s-14.7-0.6-20-0.9
				c-3.5-0.2-11.7,5.1-15.7,7.6c-17.1,10.8-29,9.8-29,9.8L1215.6,1495.7z"/>
		</g>
		<path class="st10" d="M1199.4,1284.7c0,0-52.4,10.8-62.1,26.8c-21.2,34.9-66.3,179.4-41.1,198.8c28.5,21.9,129.5,5.7,129.5,5.7
			s3.3-17.3-1.3-25.7c-4.6-8.4-80.8-21.9-84.3-25.8c-3.5-3.9,34.7-59.7,30.6-70.4C1157.7,1360.2,1199.4,1284.7,1199.4,1284.7z"/>
		<g>
			<path class="st12" d="M1406.7,1489.6c0,0,36.7,10.9,40.4,17.2c3.7,6.2,11.1,25.4,10.8,30.5c-0.3,5-10.4-9.9-14.1-13.7
				c-2.5-2.5-11.2-3.9-15.5-4.7c-10.9-1.9-16.2-7.5-20.2-10.2c-2.8-1.8-6.1-1.5-6.1-1.5L1406.7,1489.6z"/>
			<path class="st12" d="M1444.1,1517.7c0,0,2.2,13.7,4,16.2c1.7,2.5,3.3,3,3.3,3l-0.2-11.8L1444.1,1517.7z"/>
			<path class="st12" d="M1447.3,1506.8l15,22.2c0,0-1.6,1-4-0.6c-2.4-1.6-7.4-7.6-7.4-7.6L1447.3,1506.8z"/>
			<path class="st12" d="M1408.1,1508.7c0,0,3.4,9,10.2,12.4c6.7,3.2,11.8,8.1,12.8,6.4c1.1-1.8-5.1-11-5.1-11L1408.1,1508.7z"/>
		</g>
		<path class="st10" d="M1340.6,1440.1l77.2,53.7c0,0-8.1,11.9-10.8,13.1c-14.3,5.8-78.6,0.2-100.7-36.1L1340.6,1440.1z"/>
		<g>
			<path class="st23" d="M1310,1498.4c4.6,0,49.8-3.5,49.8-3.5s-1.3,8.8,1.5,13.6l-44.2,9.3l-9.1-2.9L1310,1498.4z"/>
			<g>
				<path class="st11" d="M1234.5,1506.4l75.6-8c0,0-2.7,15.4,7.2,19.4l-83.3,6.7C1234,1524.5,1227.2,1514.1,1234.5,1506.4z"/>
				<path class="st11" d="M1359.9,1496.1l-51,4.4c0,0,0.4-1.9,1.3-2c1,0,50.7-4,50.7-4l-0.2,1.6L1359.9,1496.1z"/>
				<polygon class="st11" points="1317.3,1517.8 1362.2,1508.4 1361.8,1507.1 1313.9,1517.3 				"/>
			</g>
		</g>
	</g>
</g>
<g>
	<g>
		<g>
			<path class="st7" d="M793.8,1945h-0.4c-2.4,0-4.3-2.2-4.3-4.8l6.4-310.1l19-2.5l-16.2,312.5C798.3,1942.9,796.3,1945,793.8,1945z
				"/>
		</g>
		<g>
			<path class="st7" d="M682.8,1945h-0.4c-2.4,0-4.3-2.2-4.3-4.8l6.4-310.1l19-2.5l-16.3,312.5C687.3,1942.9,685.2,1945,682.8,1945z
				"/>
		</g>
		<g>
			<path class="st7" d="M989.1,1945h0.4c2.4,0,4.3-2.2,4.3-4.8l-6.4-310.1l-19-2.5l16.3,312.5C984.6,1942.9,986.7,1945,989.1,1945z"
				/>
		</g>
		<path class="st7" d="M670,1612.1v-212.4c0-37.4,27.4-67.7,61.2-67.7h138.5c33.8,0,61.2,30.3,61.2,67.7v220.6L670,1612.1z"/>
		<path class="st7" d="M957,1645H688.4c-10.1,0-18.4-8.9-18.4-20v-13h285.9l1.1,32.8V1645z"/>
		<path class="st7" d="M988.4,1645H786.6c-7.5,0-13.6-6.6-13.6-14.7v-3.5c0-8.1,6.1-14.7,13.6-14.7h201.9c7.5,0,13.6,6.6,13.6,14.7
			v3.5C1002,1638.4,995.9,1645,988.4,1645z"/>
	</g>
	<g>
		<path class="st23" d="M879.1,1252.7c0,0-11.6,10.8-14.1,38.9c-1.9,21.3,11.6,187,21.7,200.2c28.5,37,64.2,21.4,78.2,27l13.2-13.1
			c0,0-46.4-37.7-50-50C914.6,1408.6,922.9,1270.7,879.1,1252.7z"/>
		<path class="st21" d="M870.7,1117.6c0,0,0.7-30.3-35.6-36.4c-36.5-5.9-46.5,3.5-52.7,13.6c-6.2,10.3-17.8,52-16.7,68.5
			c1.2,16.6,42.7,37.2,42,46.9C807.1,1220,870.7,1117.6,870.7,1117.6z"/>
		<path class="st12" d="M1039.7,1919.4c-1.2,10.3,11.6,13.3,26.3,14.7c14.8,1.5,10.3,4.7,30.4,9.6c20.2,4.9,28.6-1,30.2-4
			c1.4-2.7-7.9-7.4-17.9-12.6c-1.3-0.7-2.5-1.3-3.7-2c-11.1-6-17.1-17.6-25.7-28.6c-8-10.4-15-42.6-15-42.6l-27.4-7.7
			c0,0,6.8,29.1,9.1,41.5c1.4,7.3-1.3,15.3-3.5,21.3C1041.4,1912.3,1040.1,1915.7,1039.7,1919.4z"/>
		<path class="st13" d="M1066.1,1934.1c14.8,1.5,10.3,4.7,30.4,9.6c20.2,4.9,28.6-1,30.2-4c1.4-2.7-7.9-7.4-17.9-12.6l-0.2,0.2
			c0,0-14.4,4.9-30.8-0.8c-13.3-4.6-26-14.2-35.2-17.4c-1.2,3.3-2.5,6.7-2.9,10.3C1038.5,1929.6,1051.3,1932.6,1066.1,1934.1z"/>
		<path class="st19" d="M834.4,1500.7c0,0,183.3,20.9,213.5,51.8c30.2,30.9,24.8,318.4,24.8,318.4c-4.7,5.4-8.1,5.2-15.6,4.6
			c-7.2-0.6-21.7-7.4-21.7-7.4s-39.3-141.1-39.8-173.8c-0.5-32.7-6.7-88.1-19.1-91.4c-12.5-3.2-160.9,15.1-177.1-36.5
			c-16.3-51.5,10.7-93.9,10.7-93.9L834.4,1500.7z"/>
		<path class="st23" d="M748.8,1552.6c7.9,5.8,22,14.8,45.8,15.7c42.5,1.7,95.4-3.9,105.9-14.7c2.7-2.8,4.1-7.5,4.4-13.3
			c1.2-18-6.6-47.4-11.9-71.9c-3.4-15.8-5.7-29.6-3.9-36.6c5.8-21.3,23.6-64.7,25.2-79c1.5-14.3-13.9-90.7-35.3-100.2
			c-21.4-9.5-104.1,0-104.1,0c-32.3,7.3-33.6,82.9-22.9,147.3c0.3,1.7,0.5,3.3,0.9,4.9C764.6,1470.5,726.7,1536.3,748.8,1552.6z"/>
		<g>
			<path class="st12" d="M855.5,1266.7c-0.5,4.1-10.9,10.9-32.9,4.5c-21.2-6.1-23.7-13.7-23.7-18.7c0-5.9,9.2-13.9,9.1-50.3l2.6,0.6
				l42.7,9.3c0,0-1,14.7-1,28.7C852.1,1252.3,856.5,1259.8,855.5,1266.7z"/>
			<path class="st15" d="M853.2,1211.9c0,0-1,14.7-1,28.7c-23.9-0.8-36.5-24.7-41.7-37.9L853.2,1211.9z"/>
			<path class="st12" d="M861.1,1225.2c0,0-56.5,1-56.5-37.7c0-38.7-7.4-64.6,28.7-66.9c36-2.2,43.1,12.5,46,25.3
				C882.2,1158.8,875.8,1223.8,861.1,1225.2z"/>
			<path class="st21" d="M859.1,1119.6c0,0-15.5,45.4-39.3,52.1c-23.7,6.7-34-0.2-34-0.2s18.2-16,22-43.6
				C807.8,1127.8,847.4,1098,859.1,1119.6z"/>
			<path class="st21" d="M855.2,1123.3c0,0,11.6,10.2,14.3,20s4.1,30.1,9.4,29.5c0,0,11.7-30.9-1.5-48.3
				C863.7,1105.9,855.2,1123.3,855.2,1123.3z"/>
		</g>
		<path class="st12" d="M902.1,1927.7c-0.1,10.4,12.8,11.7,27.7,11.3c14.9-0.4,10.6,3.3,31.2,5.7c20.5,2.3,28.2-4.6,29.5-7.8
			c1.1-2.8-8.6-6.2-19-10.3c-1.3-0.4-2.6-1-4-1.6c-11.7-4.6-18.8-15.4-28.3-25.2c-9.1-9.3,10.9-54,10.9-54l-26.2-14.3
			c0,0-4.9,31.9-11.3,59.9c-1.6,7.3-7.1,19.1-8.7,25.4C903,1920.6,902.2,1924.2,902.1,1927.7z"/>
		<path class="st24" d="M749.9,1544.9c7.9,5.8,21,22.5,44.6,23.4c39.2-9.8,83.8-21.2,110.3-28c1.2-18-6.6-47.4-11.9-71.9
			c-30.9,10.4-77-25-92.4-38.9c-16.3-14.7-15.7-63.6-15.7-63.6l-32.7,34.3c0.3,1.7,0.5,3.3,0.9,4.9
			C764.6,1470.5,727.9,1528.6,749.9,1544.9z"/>
		<path class="st13" d="M929.8,1939.1c14.9-0.4,10.6,3.3,31.2,5.7c20.5,2.3,28.2-4.6,29.5-7.8c1.1-2.8-8.6-6.2-19-10.3l-0.1,0.2
			c0,0-13.9,6.7-30.7,3.1c-13.7-2.9-27.3-10.8-36.8-12.8c-0.9,3.5-1.8,6.9-1.8,10.6C901.9,1938.1,914.9,1939.5,929.8,1939.1z"/>
		<path class="st11" d="M794.9,1513c46.5-1.5,185.6,10.7,212.2,32.9c32.8,27.2-61.1,322-61.1,322s-10.9,1.1-14.3,0.8
			c-14.9-1.9-21-6.8-21-6.8s0.3-173.5,11.3-206.6c10.2-30.7,16.4-41.5,3.6-43.3c-12.7-1.8-171.3,20.4-184.4-32.2
			c-10.4-41.1,4.9-79.2,4.9-79.2S752,1514.4,794.9,1513z"/>
		<path class="st23" d="M775.1,1252.7c0,0-32.3,3-34.9,31.1c-1.9,21.3-15.9,172.7-5.9,185.9c28.5,37,123.5,44.9,137.5,50.5l3.9-17.5
			c0,0-101.4-56.2-99.9-68.9C777.3,1421,806,1247.7,775.1,1252.7z"/>
		<path class="st21" d="M800,1096.6c0,0,2.4-16.2-18.1-20.4c-20.4-4.2-20.9,43.6-23,55.1c-2.2,11.5,3.3,18.4,11,19.1
			C777.8,1151.1,800,1096.6,800,1096.6z"/>
		<g>
			<path class="st12" d="M876.8,1502c0,0,28.9-9,35.7-6.9c6.8,2.1,30.5,19.3,27.2,24c-3.3,4.7-24.1-2.8-33.7-1.3
				c-9.5,1.5-16.9,6.6-23.9,5.5c-6.8-1.1-14.1-4.1-14.1-4.1L876.8,1502z"/>
			<path class="st12" d="M876.8,1502c0,0,14.1-8,18.2-12.5c0.5-0.6,1.4-0.4,1.7,0.2c1.1,1.9,2.1,5.5-2.9,9
				C886.8,1503.9,876.8,1502,876.8,1502z"/>
		</g>
		<g>
			<path class="st12" d="M978.1,1505.9c0,0,30,1.8,35.8,6.2c5.9,4.5,23.1,29.1,18.6,32.4c-4.5,3.2-21.9-11.3-31.4-13.3
				c-9.4-2.1-18,0.2-24.2-3.3c-6.2-3.6-12.1-8.9-12.1-8.9L978.1,1505.9z"/>
		</g>
	</g>
</g>
<g>
	<g>
		<path class="st25" d="M772.1,1949H650.1c-5.9-7.9-3.7-36.9-2.8-46.4c0.2-1.9,0.3-3,0.3-3s41.6-36.6,47.4-8.6
			c0.2,0.9,0.4,1.8,0.6,2.6c7.2,26.2,39.6,38.2,58.2,41.5C766,1937.2,770.5,1944.2,772.1,1949z"/>
		<path class="st13" d="M439.3,1512.3c4.4,0,208.9,42.3,242.8,88.3c16.9,23,19.4,288.7,19.4,288.7s-21,28.6-66.1,11.9
			c0,0-33.2-181.9-30.7-237c0.6-15.3-139.7-2.2-165.5-9.5c-25.8-7.3-88.5-68.8-74.7-98.7C378.4,1526.2,439.3,1512.3,439.3,1512.3z"
			/>
		<path class="st12" d="M587.4,1499.9c0,0,13.1,12.4,26.5,16c7.7,2,15.1,4.2,19.5,6.5c12.2,6.1,35.2,33.5,33.1,36.3
			c-6.8,8.7-34.6-13.9-39.8-12.4c-5.2,1.6,8.7,14.8,3.1,18.4c-2.9,1.9-8.3-9.5-13.5-11.2c-7-2.1-11.4-13.6-13.6-14.4
			c-4.1-1.6-20.9-18.1-20.9-18.1L587.4,1499.9z"/>
		<path class="st26" d="M826,1949H704.1c-5.9-7.9-3.7-36.9-2.8-46.4c0.2-1.9,0.3-3,0.3-3s41.6-36.6,47.4-8.6
			c0.2,0.9,0.4,1.8,0.6,2.6c7.2,26.2,39.6,38.2,58.2,41.5C819.9,1937.2,824.4,1944.2,826,1949z"/>
		<path class="st27" d="M499.5,1512.3c4.4,0,208.9,42.3,242.8,88.3c16.9,23,19.4,288.7,19.4,288.7s-21,28.6-66.1,11.9
			c0,0-33.2-181.9-30.7-237c0.6-15.3-139.7-2.2-165.5-9.5c-25.8-7.3-88.5-68.8-74.7-98.7C438.7,1526.2,499.5,1512.3,499.5,1512.3z"
			/>
		<path class="st12" d="M486.7,1239c-14.8-1.3-30.2-5.7-43.4-10.4c-16.7-5.9-30.1-14.6-21.5-31.4c8-15.4,20.9-50,20-78.5l31,27.4
			l21.1,18.6c0,0-0.1,11-2.4,30.3c-0.4,3.6-1,7.4-1.5,11.4c-0.4,3.2,0.9,6.6,3.4,8.3c0.1,0.1,0.3,0.2,0.4,0.3
			C504.4,1222.4,499.1,1240.1,486.7,1239z"/>
		<path class="st15" d="M494,1160.2c0,0,1.1,4-0.7,18.7c-18.8-3.3-36.4-19.9-36.4-19.9c9.5-2.9,13.1-14.3,20.1-13.2L494,1160.2z"/>
		<path class="st12" d="M511.3,1163.7c0,0-72.2,13.2-79-36.4c-6.7-49.6-20.6-81.3,25.1-91.8c45.8-10.5,57.4,6.9,63.3,22.9
			C526.7,1074.2,529.9,1158.9,511.3,1163.7z"/>
		<path class="st27" d="M531.4,1036.3c3.1,11.9-5.2,26.6-19.1,31.2c-20.6,7.1-16.2,35-25.5,34.7c-9.3-0.3-13.1-16.1-21.4-3.6
			c-7.1,10.7,5.9,23.3,5,29.2c-1.5,10-15.8,30.6-28.8,29.6s-37-68.5-32.2-89.3c4.8-20.9,24.2-42.8,42.5-45.9
			c18.3-3,43.6,5.7,49.5,5.7C507.3,1027.9,529.7,1029.9,531.4,1036.3z"/>
		<path class="st10" d="M549.3,1497.5c-1.2,11.5-3.4,19.2-6.8,21.8c-10.8,7.9-25,17.9-41,27.6c-56.5,34.7-133.9,68.1-149.6,9.5
			c-18.5-68.8-6.3-197.9,11.8-278.3c10.5-46.2,39.3-94.7,58.8-94.7c33.3,0.1,81.1,9.7,100.3,62c7.5,20.3,18.5,90.6,24.1,155
			C550.2,1438.9,551.6,1475.2,549.3,1497.5z"/>
		<path class="st22" d="M419.1,1183.9l7.5-18.6c0,0,66.7,7.5,78.1,49.6C504.8,1214.9,453.1,1184.8,419.1,1183.9z"/>
		<path class="st22" d="M549.3,1497.5c-1.2,11.5-3.4,19.2-6.8,21.8c-10.8,7.9-25,17.9-41,27.6c-16.6-11.2-50.8-37.6-58.7-68.9
			c-10.5-40.9-3.1-91.2-3.1-91.2L549.3,1497.5z"/>
		<path class="st10" d="M432.7,1246.8c0,0,5.8,175.7,14.9,210.4c15.5,59.2,156.8,80.3,156.8,80.3s8.3-10.4,4.6-27.7
			c0,0-84.5-73.2-87-87.1c-2.5-13.9,18.4-108.4-5.5-142.8C492.7,1245.7,448.7,1215.9,432.7,1246.8z"/>
	</g>
	<g>
		<g>
			<path class="st7" d="M255.5,1946h-0.4c-3.9-0.1-6.7-3.5-6.4-7.5l25.4-278.8l22.1,2.1l-36.5,280.4
				C259.5,1944.4,257.6,1946,255.5,1946z"/>
		</g>
		<g>
			<path class="st7" d="M386.1,1946h-0.4c-3.9-0.1-6.7-3.5-6.4-7.5l25.4-278.8l22.1,2.1l-36.5,280.4
				C390.1,1944.4,388.3,1946,386.1,1946z"/>
		</g>
		<g>
			<path class="st7" d="M631.4,1946h0.4c3.9-0.1,6.7-3.5,6.4-7.5l-25.4-278.8l-22.1,2.1l36.5,280.4
				C627.5,1944.4,629.3,1946,631.4,1946z"/>
		</g>
		<path class="st7" d="M262.7,1620.8L238.6,1388c-3.2-33.6,7.1-66.4,51.1-68.9l77.4-5.2c45.9-2.1,66.6,39.9,72.4,72.3l46,256.1
			L262.7,1620.8z"/>
		<path class="st7" d="M275.6,1664h343.9c7,0,12.5-6.3,12.5-14V1633c0-7.7-5.7-14-12.5-14H263v31C263,1657.7,268.7,1664,275.6,1664z
			"/>
		<path class="st7" d="M273.7,1664h202.6c5.3,0,9.7-4.8,9.7-10.8v-23.4c0-6-4.4-10.8-9.7-10.8H264v34.2
			C264,1659.1,268.4,1664,273.7,1664z"/>
	</g>
</g>
<g>
	<path class="st7" d="M808,913H689c-5.5,0-10-4.9-10-10.9V775.9c0-6,4.5-10.9,10-10.9H808c5.5,0,10,4.9,10,10.9V902
		C818,908.1,813.5,913,808,913z"/>
	<path class="st22" d="M801.9,907H693.1c-5,0-9.1-4.5-9.1-9.9V781.9c0-5.5,4.1-9.9,9.1-9.9h108.8c5,0,9.1,4.5,9.1,9.9V897
		C811,902.5,806.9,907,801.9,907z"/>
	<g>
		<g>
			<ellipse class="st7" cx="748" cy="785.1" rx="2.9" ry="3.1"/>
			<path class="st7" d="M768.3,789.6c0.7-1.6,2.6-2.1,4-1.2c1.4,0.9,1.9,2.8,1.1,4.4c-0.7,1.6-2.6,2.1-4,1.2
				C768,793.1,767.6,791.2,768.3,789.6z"/>
			<path class="st7" d="M788.2,807c1.3-0.9,3.1-0.6,4,0.9c0.9,1.5,0.4,3.5-0.9,4.4c-1.3,0.9-3.1,0.6-4-0.9
				C786.5,809.9,786.8,807.9,788.2,807z"/>
			<path class="st7" d="M798.1,833.9c1.6,0,2.9,1.5,2.9,3.1s-1.3,3.1-2.9,3.1c-1.6,0-2.9-1.5-2.9-3.1S796.5,833.9,798.1,833.9z"/>
			<ellipse class="st7" cx="791" cy="867.4" rx="2.9" ry="3.1"/>
			<path class="st7" d="M775,885c1.1,1.2,1.1,3.2,0,4.5s-3,1.2-4.1,0c-1.1-1.2-1.1-3.2,0-4.5C772.1,883.8,773.8,883.8,775,885z"/>
			<ellipse class="st7" cx="748" cy="895.3" rx="2.9" ry="3.1"/>
		</g>
		<g>
			<path class="st7" d="M727.6,789.6c-0.7-1.6-2.6-2.1-4-1.2c-1.4,0.9-1.9,2.8-1.1,4.4c0.7,1.6,2.6,2.1,4,1.2
				C727.8,793.1,728.3,791.2,727.6,789.6z"/>
			<path class="st7" d="M707.7,807c-1.3-0.9-3.1-0.6-4,0.9s-0.5,3.5,0.9,4.4c1.3,0.9,3.1,0.6,4-0.9C709.4,809.9,709,807.9,707.7,807
				z"/>
			<path class="st7" d="M697.8,833.9c-1.6,0-2.9,1.5-2.9,3.1s1.3,3.1,2.9,3.1c1.6,0,2.9-1.5,2.9-3.1S699.5,833.9,697.8,833.9z"/>
			<ellipse class="st7" cx="704.9" cy="867.4" rx="2.9" ry="3.1"/>
			<path class="st7" d="M721,885c-1.1,1.2-1.1,3.2,0,4.5s3,1.2,4.1,0c1.1-1.2,1.1-3.2,0-4.5C723.9,883.8,722,883.8,721,885z"/>
		</g>
	</g>
	<g>
		<path class="st7" d="M747.2,837c0-1.8,1.3-3.1,2.9-3.1c1.6,0,2.9,1.5,2.9,3.1s-1.3,3.1-2.9,3.1C748.6,840.3,747.2,838.8,747.2,837
			z"/>
		<g>
			<rect x="749" y="797" class="st7" width="1" height="39"/>
		</g>
		<g>
			<polygon class="st7" points="749.1,835.9 768.1,819.5 769.5,821.5 750.5,838 			"/>
		</g>
	</g>
</g>
</svg>
