<svg width="50" height="58" xmlns="http://www.w3.org/2000/svg">

 <title/>
 <g>
  <title>background</title>
  <rect fill="none" id="canvas_background" height="60" width="52" y="-1" x="-1"/>
 </g>
 <g>
  <title>Layer 1</title>
  <ellipse ry="22" rx="22" id="svg_12" cy="30.177623" cx="24.355245" stroke-opacity="null" stroke-width="null" stroke="null" fill="#2b468b"/>
  <circle fill="#a2c1ef" id="svg_1" r="6" cy="20.007036" cx="24.184749" class="cls-1"/>
  <path fill="#a2c1ef" id="svg_2" d="m24.184749,28.007036a11,11 0 0 0 -11,11l0,2a3,3 0 0 0 3,3l16,0a3,3 0 0 0 3,-3l0,-2a11,11 0 0 0 -11,-11z" class="cls-2"/>
  <path fill="#8cb3f2" id="svg_3" d="m35.184749,39.007036l0,2a3,3 0 0 1 -3,3l-8,0l0,-16l0.67,0c0.28,0 0.55,0 0.81,0.08l0.59,0.1l0.51,0.11l0.35,0.09l0.45,0.13l0.63,0.23a9.32,9.32 0 0 1 1.2,0.56a11,11 0 0 1 5.79,9.7z" class="cls-3"/>
  <path fill="#f7b076" id="svg_4" d="m27.604749,39.627036l-2.5,-6a1,1 0 0 0 -1.84,0l-2.5,6a1,1 0 0 0 0.15,1l2.5,3a1,1 0 0 0 1.54,0l2.5,-3a1,1 0 0 0 0.15,-1z" class="cls-4"/>
  <path fill="#fa9746" id="svg_5" d="m27.454749,40.647036l-2.5,3a1,1 0 0 1 -0.77,0.36l0,-11a1,1 0 0 1 0.92,0.62l0.23,0.56l2.27,5.44a1,1 0 0 1 -0.15,1.02z" class="cls-5"/>
  <path fill="rgba(234, 243, 250, 0.8)" id="svg_6" d="m29.394749,29.327036a10.94,10.94 0 0 0 -10.42,0l4.5,5.39a1,1 0 0 0 1.42,0l4.5,-5.39z" class="cls-6"/>
  <path fill="#8cb3f2" id="svg_7" d="m30.184749,20.007036a6,6 0 0 1 -6,6l0,-12a6,6 0 0 1 6,6z" class="cls-7"/>
  <path fill="#d7e2f2" id="svg_8" d="m29.394749,29.327036l-4.06,4.86l-0.44,0.53a1,1 0 0 1 -0.71,0.29l0,-7l0.67,0c0.28,0 0.55,0 0.81,0.08l0.59,0.1l0.51,0.11l0.35,0.09l0.45,0.13l0.63,0.23a10.88,10.88 0 0 1 1.2,0.58z" class="cls-8"/>
 </g>
</svg>